:FULLY-SPECIFIED
:FORCE-ALL-JOINTS-BE-3DOF
:DEGREES
816
root -4.50688 14.673 -40.19 33.1032 -76.8945 -23.5954
lfemur -71.0495 19.8485 -23.4695
ltibia 87.8032 -0 0
lfoot -8.0402 9.07926 -0.0420227
ltoes -15.4801 0 0
rfemur -33.2867 -9.02327 22.728
rtibia 72.2936 -0 0
rfoot -33.0507 -26.5913 0.0566882
rtoes -22.4359 0 0
lowerback 18.1891 0.490582 4.53047
upperback 0.299478 1.66266 1.35603
thorax -9.83192 0.58323 -1.52549
lowerneck -2.10852 12.8583 5.14629
upperneck -1.7193 17.0912 -9.08322
head 1.14819 8.51246 -3.3188
lclavicle 4.22417e-15 7.85199e-15 0
lhumerus 106.365 -33.0584 22.1058
lradius 98.8138 -0 0
lwrist 15.0496 0 0
lhand -8.97513 23.1789 0.104132
lfingers 7.12502 -0 0
lthumb 16.9709 52.502 0.0944851
rclavicle 4.22417e-15 7.85199e-15 0
rhumerus 27.5971 38.626 -56.8368
rradius 64.5176 -0 0
rwrist -8.58975 0 0
rhand -11.929 -40.7207 0.0421889
rfingers 7.12502 -0 0
rthumb 14.1135 -70.0911 0.0869739
817
root -4.33782 14.6943 -40.2403 30.9522 -75.958 -21.4018
lfemur -71.0114 19.9907 -23.6868
ltibia 87.9054 -0 0
lfoot -8.09338 9.24426 -0.029708
ltoes -15.4717 0 0
rfemur -33.5777 -9.18567 22.983
rtibia 72.2299 -0 0
rfoot -33.1188 -26.7962 0.0435077
rtoes -22.3386 0 0
lowerback 18.2406 0.458511 4.59519
upperback 0.306532 1.63408 1.31433
thorax -9.84854 0.564448 -1.60181
lowerneck -2.11249 12.9226 5.17989
upperneck -1.72507 17.1771 -9.17508
head 1.16297 8.5552 -3.34846
lclavicle 4.22417e-15 7.85199e-15 0
lhumerus 106.9 -33.4327 20.4534
lradius 100.121 -0 0
lwrist 16.1352 0 0
lhand -8.85248 23.1551 0.0945349
lfingers 7.12502 -0 0
lthumb 17.0891 52.4663 0.0868488
rclavicle 4.22417e-15 7.85199e-15 0
rhumerus 28.5729 38.8816 -56.5302
rradius 64.3653 -0 0
rwrist -8.35313 0 0
rhand -12.3778 -40.6586 0.0295266
rfingers 7.12502 -0 0
rthumb 13.6838 -70.0887 0.0641781
818
root -4.16876 14.7155 -40.2906 29.1078 -75.0258 -19.5319
lfemur -70.9311 20.1291 -23.8407
ltibia 87.9353 -0 0
lfoot -8.11528 9.39334 -0.0191046
ltoes -15.4639 0 0
rfemur -33.8172 -9.34016 23.1991
rtibia 72.1638 -0 0
rfoot -33.1657 -26.9849 0.0310561
rtoes -22.246 0 0
lowerback 18.2842 0.431758 4.6478
upperback 0.311701 1.60998 1.27594
thorax -9.8634 0.548599 -1.66859
lowerneck -2.12184 12.9762 5.2052
upperneck -1.71967 17.2491 -9.24889
head 1.17924 8.59076 -3.3714
lclavicle 4.22417e-15 7.85199e-15 0
lhumerus 107.211 -33.8 18.9908
lradius 101.238 -0 0
lwrist 17.0866 0 0
lhand -8.78709 23.1539 0.0795554
lfingers 7.12502 -0 0
lthumb 17.1521 52.4547 0.0738333
rclavicle 4.22417e-15 7.85199e-15 0
rhumerus 29.3057 39.1321 -56.3218
rradius 64.2946 -0 0
rwrist -8.20973 0 0
rhand -12.7855 -40.5764 0.0187966
rfingers 7.12502 -0 0
rthumb 13.2935 -70.0611 0.0437349
819
root -3.99969 14.7367 -40.3409 27.5131 -74.104 -17.9298
lfemur -70.8061 20.263 -23.9275
ltibia 87.8891 -0 0
lfoot -8.10416 9.52574 -0.0104667
ltoes -15.4566 0 0
rfemur -34.0026 -9.4866 23.3738
rtibia 72.0958 -0 0
rfoot -33.1903 -27.1562 0.0195325
rtoes -22.1582 0 0
lowerback 18.3196 0.410671 4.6875
upperback 0.314905 1.59061 1.24101
thorax -9.87642 0.53586 -1.72526
lowerneck -2.13685 13.0185 5.22179
upperneck -1.70254 17.3068 -9.3037
head 1.19705 8.61879 -3.38729
lclavicle 4.22417e-15 7.85199e-15 0
lhumerus 107.281 -34.1688 17.733
lradius 102.153 -0 0
lwrist 17.8967 0 0
lhand -8.78176 23.1765 0.0589225
lfingers 7.12502 -0 0
lthumb 17.1571 52.4681 0.0551487
rclavicle 4.22417e-15 7.85199e-15 0
rhumerus 29.7806 39.3793 -56.2195
rradius 64.3094 -0 0
rwrist -8.16817 0 0
rhand -13.1494 -40.4734 0.0102023
rfingers 7.12502 -0 0
rthumb 12.9452 -70.0069 0.0260168
820
root -3.83063 14.758 -40.3912 26.1231 -73.1977 -16.5514
lfemur -70.634 20.3918 -23.9437
ltibia 87.763 -0 0
lfoot -8.05826 9.64067 -0.00402879
ltoes -15.4503 0 0
rfemur -34.1312 -9.62477 23.5046
rtibia 72.0266 -0 0
rfoot -33.1915 -27.3089 0.00912349
rtoes -22.0754 0 0
lowerback 18.3465 0.395591 4.71347
upperback 0.316063 1.57622 1.2097
thorax -9.88751 0.526412 -1.77125
lowerneck -2.15777 13.0491 5.22924
upperneck -1.67312 17.3493 -9.33858
head 1.21646 8.63893 -3.39578
lclavicle 4.22417e-15 7.85199e-15 0
lhumerus 107.096 -34.546 16.6956
lradius 102.856 -0 0
lwrist 18.5585 0 0
lhand -8.83935 23.224 0.0324405
lfingers 7.12502 -0 0
lthumb 17.1015 52.5078 0.0305802
rclavicle 4.22417e-15 7.85199e-15 0
rhumerus 29.9827 39.624 -56.2311
rradius 64.4133 -0 0
rwrist -8.2316 0 0
rhand -13.4668 -40.3487 0.0039018
rfingers 7.12502 -0 0
rthumb 12.6413 -69.9252 0.011349
821
root -3.66157 14.7792 -40.4415 384.902 -72.3114 344.638
lfemur -70.4123 20.5148 -23.8857
ltibia 87.5532 0 0
lfoot -7.97581 9.73737 0
ltoes -15.4451 0 0
rfemur -34.2003 -9.75434 23.5888
rtibia 71.9567 0 0
rfoot -33.1684 -27.4419 0
rtoes -21.998 0 0
lowerback 18.3645 0.386855 4.72491
upperback 0.315096 1.56706 1.18217
thorax -9.8966 0.520432 -1.80598
lowerneck -2.18488 13.0674 5.22711
upperneck -1.63087 17.3761 -9.35259
head 1.23752 8.65083 -3.39655
lclavicle 4.22417e-15 7.85199e-15 0
lhumerus 106.639 -34.9364 15.8949
lradius 103.336 0 0
lwrist 19.065 0 0
lhand -8.96267 23.2973 0
lfingers 7.12502 0 0
lthumb 16.9824 52.5749 0
rclavicle 4.22417e-15 7.85199e-15 0
rhumerus 29.8969 39.8657 -56.3648
rradius 64.61 0 0
rwrist -8.40454 0 0
rhand -13.7352 -40.2017 0
rfingers 7.12502 0 0
rthumb 12.3844 -69.8148 0
822
root -3.61451 14.7793 -40.3799 23.7965 -71.4298 -14.3087
lfemur -70.1285 20.6348 -23.7467
ltibia 87.2481 -0 0
lfoot -7.85187 9.81949 0.00175546
ltoes -15.4382 0 0
rfemur -34.2085 -9.88169 23.6272
rtibia 71.8833 -0 0
rfoot -33.1191 -27.5599 -0.00807543
rtoes -21.9237 0 0
lowerback 18.3739 0.3847 4.72229
upperback 0.311852 1.56347 1.15761
thorax -9.90394 0.518017 -1.83065
lowerneck -2.21979 13.0728 5.21466
upperneck -1.57297 17.3865 -9.34499
head 1.2613 8.65409 -3.38915
lclavicle -7.04319e-14 2.28602e-15 0
lhumerus 105.889 -35.3489 15.3394
lradius 103.602 -0 0
lwrist 19.4223 0 0
lhand -9.16128 23.4026 -0.0402447
lfingers 7.12502 -0 0
lthumb 16.7907 52.6753 -0.0383618
rclavicle -7.04319e-14 2.28602e-15 0
rhumerus 29.5002 40.1085 -56.6356
rradius 64.9143 -0 0
rwrist -8.69887 0 0
rhand -13.9611 -40.0267 -0.00142902
rfingers 7.12502 -0 0
rthumb 12.1682 -69.6712 -0.0081209
823
root -3.56746 14.7793 -40.3182 22.7674 -70.536 -13.3516
lfemur -69.7743 20.7549 -23.5247
ltibia 86.8421 -0 0
lfoot -7.68422 9.8913 0.00151756
ltoes -15.4266 0 0
rfemur -34.1577 -10.0133 23.6235
rtibia 71.8032 -0 0
rfoot -33.0434 -27.6686 -0.0154147
rtoes -21.8503 0 0
lowerback 18.3756 0.388925 4.70707
upperback 0.306288 1.56545 1.13512
thorax -9.90989 0.519035 -1.84706
lowerneck -2.26364 13.0655 5.19173
upperneck -1.49754 17.3807 -9.31627
head 1.28871 8.64879 -3.37363
lclavicle -7.04319e-14 2.28602e-15 0
lhumerus 104.843 -35.7888 15.0246
lradius 103.676 -0 0
lwrist 19.6447 0 0
lhand -9.44024 23.5442 -0.089471
lfingers 7.12502 -0 0
lthumb 16.5215 52.813 -0.0856152
rclavicle -7.04319e-14 2.28602e-15 0
rhumerus 28.7874 40.3547 -57.0508
rradius 65.3346 -0 0
rwrist -9.11952 0 0
rhand -14.1538 -39.82 -0.000391058
rfingers 7.12502 -0 0
rthumb 11.9838 -69.492 -0.0132755
824
root -3.5204 14.7794 -40.2566 21.8066 -69.6312 -12.4818
lfemur -69.353 20.8739 -23.2233
ltibia 86.3405 -0 0
lfoot -7.4752 9.95294 -0.000663531
ltoes -15.4107 0 0
rfemur -34.0501 -10.1487 23.5794
rtibia 71.7163 -0 0
rfoot -32.9425 -27.7683 -0.0219858
rtoes -21.778 0 0
lowerback 18.3697 0.399204 4.6799
upperback 0.29849 1.57272 1.11466
thorax -9.91448 0.523318 -1.85555
lowerneck -2.31593 13.046 5.15885
upperneck -1.40548 17.3595 -9.26741
head 1.31954 8.6353 -3.35037
lclavicle -7.04319e-14 2.28602e-15 0
lhumerus 103.508 -36.2509 14.9477
lradius 103.565 -0 0
lwrist 19.7378 0 0
lhand -9.79567 23.7204 -0.146627
lfingers 7.12502 -0 0
lthumb 16.1785 52.9863 -0.140738
rclavicle -7.04319e-14 2.28602e-15 0
rhumerus 27.7701 40.5995 -57.6072
rradius 65.8654 -0 0
rwrist -9.66066 0 0
rhand -14.3145 -39.583 0.00301152
rfingers 7.12502 -0 0
rthumb 11.8301 -69.2788 -0.0155488
